<mxfile host="app.diagrams.net" agent="Mozilla/5.0 (Windows NT 10.0; Win64; x64) AppleWebKit/537.36 (KHTML, like Gecko) Chrome/128.0.0.0 YaBrowser/24.10.0.0 Safari/537.36" version="25.0.3">
  <diagram name="Страница — 1" id="FZuVYSKQKKseB5JXQPXO">
    <mxGraphModel dx="1290" dy="567" grid="1" gridSize="10" guides="1" tooltips="1" connect="1" arrows="1" fold="1" page="1" pageScale="1" pageWidth="827" pageHeight="1169" math="0" shadow="0">
      <root>
        <mxCell id="0" />
        <mxCell id="1" parent="0" />
        <mxCell id="4-gj9_JSfRjHjwscXcXN-25" value="" style="edgeStyle=orthogonalEdgeStyle;rounded=0;orthogonalLoop=1;jettySize=auto;html=1;" edge="1" parent="1" target="4-gj9_JSfRjHjwscXcXN-27">
          <mxGeometry relative="1" as="geometry">
            <mxPoint x="425" y="80" as="sourcePoint" />
          </mxGeometry>
        </mxCell>
        <mxCell id="4-gj9_JSfRjHjwscXcXN-26" value="" style="edgeStyle=orthogonalEdgeStyle;rounded=0;orthogonalLoop=1;jettySize=auto;html=1;" edge="1" parent="1" source="4-gj9_JSfRjHjwscXcXN-27" target="4-gj9_JSfRjHjwscXcXN-28">
          <mxGeometry relative="1" as="geometry" />
        </mxCell>
        <mxCell id="4-gj9_JSfRjHjwscXcXN-27" value="Ввод: список техник-объектов-нарушителей" style="shape=parallelogram;perimeter=parallelogramPerimeter;whiteSpace=wrap;html=1;fixedSize=1;" vertex="1" parent="1">
          <mxGeometry x="340" y="120" width="170" height="60" as="geometry" />
        </mxCell>
        <mxCell id="4-gj9_JSfRjHjwscXcXN-28" value="Поиск нужного датасет инцидентов" style="rounded=0;whiteSpace=wrap;html=1;" vertex="1" parent="1">
          <mxGeometry x="297.5" y="220" width="255" height="60" as="geometry" />
        </mxCell>
        <mxCell id="4-gj9_JSfRjHjwscXcXN-29" style="edgeStyle=orthogonalEdgeStyle;rounded=0;orthogonalLoop=1;jettySize=auto;html=1;exitX=0.5;exitY=1;exitDx=0;exitDy=0;entryX=0.5;entryY=0;entryDx=0;entryDy=0;" edge="1" parent="1" source="4-gj9_JSfRjHjwscXcXN-28" target="4-gj9_JSfRjHjwscXcXN-33">
          <mxGeometry relative="1" as="geometry">
            <mxPoint x="511.5" y="360" as="sourcePoint" />
          </mxGeometry>
        </mxCell>
        <mxCell id="4-gj9_JSfRjHjwscXcXN-30" value="Сообщение об ошибке" style="rounded=0;whiteSpace=wrap;html=1;" vertex="1" parent="1">
          <mxGeometry x="220" y="520" width="120" height="60" as="geometry" />
        </mxCell>
        <mxCell id="4-gj9_JSfRjHjwscXcXN-31" style="edgeStyle=orthogonalEdgeStyle;rounded=0;orthogonalLoop=1;jettySize=auto;html=1;exitX=0.5;exitY=1;exitDx=0;exitDy=0;entryX=0;entryY=0.5;entryDx=0;entryDy=0;entryPerimeter=0;" edge="1" parent="1" source="4-gj9_JSfRjHjwscXcXN-30" target="4-gj9_JSfRjHjwscXcXN-46">
          <mxGeometry relative="1" as="geometry">
            <mxPoint x="355" y="820" as="targetPoint" />
          </mxGeometry>
        </mxCell>
        <mxCell id="4-gj9_JSfRjHjwscXcXN-32" value="" style="edgeStyle=orthogonalEdgeStyle;rounded=0;orthogonalLoop=1;jettySize=auto;html=1;" edge="1" parent="1" source="4-gj9_JSfRjHjwscXcXN-33" target="4-gj9_JSfRjHjwscXcXN-36">
          <mxGeometry relative="1" as="geometry" />
        </mxCell>
        <mxCell id="4-gj9_JSfRjHjwscXcXN-33" value="ПО получает соотношение инцидент-техника-объект-нарушитель" style="rounded=0;whiteSpace=wrap;html=1;" vertex="1" parent="1">
          <mxGeometry x="300" y="320" width="250" height="60" as="geometry" />
        </mxCell>
        <mxCell id="4-gj9_JSfRjHjwscXcXN-34" style="edgeStyle=orthogonalEdgeStyle;rounded=0;orthogonalLoop=1;jettySize=auto;html=1;exitX=0;exitY=0.5;exitDx=0;exitDy=0;entryX=0.5;entryY=0;entryDx=0;entryDy=0;" edge="1" parent="1" source="4-gj9_JSfRjHjwscXcXN-36" target="4-gj9_JSfRjHjwscXcXN-30">
          <mxGeometry relative="1" as="geometry" />
        </mxCell>
        <mxCell id="4-gj9_JSfRjHjwscXcXN-35" style="edgeStyle=orthogonalEdgeStyle;rounded=0;orthogonalLoop=1;jettySize=auto;html=1;exitX=1;exitY=0.5;exitDx=0;exitDy=0;entryX=0.5;entryY=0;entryDx=0;entryDy=0;" edge="1" parent="1" source="4-gj9_JSfRjHjwscXcXN-36" target="4-gj9_JSfRjHjwscXcXN-38">
          <mxGeometry relative="1" as="geometry" />
        </mxCell>
        <mxCell id="4-gj9_JSfRjHjwscXcXN-36" value="Высокая точность результата?" style="rhombus;whiteSpace=wrap;html=1;" vertex="1" parent="1">
          <mxGeometry x="321.25" y="430" width="207.5" height="80" as="geometry" />
        </mxCell>
        <mxCell id="4-gj9_JSfRjHjwscXcXN-37" value="" style="edgeStyle=orthogonalEdgeStyle;rounded=0;orthogonalLoop=1;jettySize=auto;html=1;" edge="1" parent="1" source="4-gj9_JSfRjHjwscXcXN-38" target="4-gj9_JSfRjHjwscXcXN-40">
          <mxGeometry relative="1" as="geometry" />
        </mxCell>
        <mxCell id="4-gj9_JSfRjHjwscXcXN-38" value="Парсинг полученных данных" style="rounded=0;whiteSpace=wrap;html=1;" vertex="1" parent="1">
          <mxGeometry x="516.25" y="520" width="137.5" height="50" as="geometry" />
        </mxCell>
        <mxCell id="4-gj9_JSfRjHjwscXcXN-39" style="edgeStyle=orthogonalEdgeStyle;rounded=0;orthogonalLoop=1;jettySize=auto;html=1;exitX=0.5;exitY=1;exitDx=0;exitDy=0;entryX=0.5;entryY=0;entryDx=0;entryDy=0;" edge="1" parent="1" source="4-gj9_JSfRjHjwscXcXN-40" target="4-gj9_JSfRjHjwscXcXN-42">
          <mxGeometry relative="1" as="geometry" />
        </mxCell>
        <mxCell id="4-gj9_JSfRjHjwscXcXN-40" value="Создание документа Инциденты ИБ" style="rounded=0;whiteSpace=wrap;html=1;" vertex="1" parent="1">
          <mxGeometry x="516.25" y="600" width="137.5" height="50" as="geometry" />
        </mxCell>
        <mxCell id="4-gj9_JSfRjHjwscXcXN-41" value="" style="edgeStyle=orthogonalEdgeStyle;rounded=0;orthogonalLoop=1;jettySize=auto;html=1;" edge="1" parent="1" source="4-gj9_JSfRjHjwscXcXN-42">
          <mxGeometry relative="1" as="geometry">
            <mxPoint x="420" y="800" as="targetPoint" />
          </mxGeometry>
        </mxCell>
        <mxCell id="4-gj9_JSfRjHjwscXcXN-42" value="Вывод: документ&amp;nbsp;&lt;div&gt;Инциденты ИБ&lt;/div&gt;" style="shape=parallelogram;perimeter=parallelogramPerimeter;whiteSpace=wrap;html=1;fixedSize=1;" vertex="1" parent="1">
          <mxGeometry x="335" y="710" width="170" height="60" as="geometry" />
        </mxCell>
        <mxCell id="4-gj9_JSfRjHjwscXcXN-43" value="Да" style="text;html=1;align=center;verticalAlign=middle;whiteSpace=wrap;rounded=0;" vertex="1" parent="1">
          <mxGeometry x="510" y="440" width="60" height="30" as="geometry" />
        </mxCell>
        <mxCell id="4-gj9_JSfRjHjwscXcXN-44" value="Нет" style="text;html=1;align=center;verticalAlign=middle;whiteSpace=wrap;rounded=0;" vertex="1" parent="1">
          <mxGeometry x="280" y="440" width="60" height="30" as="geometry" />
        </mxCell>
        <mxCell id="4-gj9_JSfRjHjwscXcXN-45" value="Начало" style="strokeWidth=2;html=1;shape=mxgraph.flowchart.terminator;whiteSpace=wrap;" vertex="1" parent="1">
          <mxGeometry x="360" y="40" width="130" height="40" as="geometry" />
        </mxCell>
        <mxCell id="4-gj9_JSfRjHjwscXcXN-46" value="Конец" style="strokeWidth=2;html=1;shape=mxgraph.flowchart.terminator;whiteSpace=wrap;" vertex="1" parent="1">
          <mxGeometry x="355" y="800" width="130" height="40" as="geometry" />
        </mxCell>
      </root>
    </mxGraphModel>
  </diagram>
</mxfile>
